<svg width="786.4697538267137" height="1000" viewBox="0 0 786.4697538267137 1000" xmlns="http://www.w3.org/2000/svg"><defs/><path fill="#0d293f" d="M 0 0 L 1000 0 L 1000 1000 L 0 1000 Z"/><path fill="#fa350b" transform="matrix(1.7008877013181138 0 0 1.7008877013181138 -73.04691271831919 -38.213936667896974)" d="M 343.24495367361 323.994102131 C 347.71895367361 322.403102131 350.07095367361 317.472102131 348.48195367361 312.995102131 C 346.89195367361 308.517102131 341.95495367361 306.171102131 337.48195367361 307.760102131 C 333.00795367361 309.348102131 330.66595367361 314.278102131 332.25695367361 318.756102131 C 333.84795367361 323.232102131 338.77195367361 325.581102131 343.24495367361 323.994102131 Z"/><path fill="#fa350b" transform="matrix(1.7008877013181138 0 0 1.7008877013181138 -73.04691271831919 -38.213936667896974)" d="M 346.40295367361 435.202102131 C 350.69095367361 437.244102131 355.83295367361 435.419102131 357.87195367361 431.130102131 C 359.91395367361 426.841102131 358.09195367361 421.696102131 353.80395367361 419.652102131 C 349.52095367361 417.614102131 344.37195367361 419.443102131 342.33195367361 423.733102131 C 340.29095367361 428.020102131 342.11795367361 433.165102131 346.40295367361 435.202102131 Z"/><path fill="#fa350b" transform="matrix(1.7008877013181138 0 0 1.7008877013181138 -73.04691271831919 -38.213936667896974)" d="M 247.07995367361 378.515102131 C 251.55395367361 376.927102131 253.90195367361 371.995102131 252.31395367361 367.522102131 C 250.72395367361 363.046102131 245.79095367361 360.696102131 241.31695367361 362.284102131 C 236.84195367361 363.873102131 234.49595367361 368.807102131 236.08395367361 373.284102131 C 237.67395367361 377.757102131 242.60495367361 380.104102131 247.07995367361 378.515102131 Z"/><path fill="#fa350b" transform="matrix(1.7008877013181138 0 0 1.7008877013181138 -73.04691271831919 -38.213936667896974)" d="M 428.11195367361 318.228102131 C 422.59695367361 312.595102131 386.97795367361 273.773102131 386.97795367361 268.181102131 C 386.97795367361 185.181102131 348.47795367361 102.681102131 216.09595367361 111.274102131 C 203.53295367361 112.089102131 189.41895367361 114.236102131 177.57895367361 118.365102131 C 135.82295367361 132.923102131 102.55195367361 166.712102131 114.91895367361 211.188102131 L 152.78595367361 197.744102131 C 152.70995367361 189.534102131 157.77795367361 181.790102131 165.94395367361 178.890102131 C 176.22295367361 175.241102131 187.55495367361 180.636102131 191.20495367361 190.913102131 C 194.85495367361 201.195102131 189.46595367361 212.533102131 179.18595367361 216.184102131 C 171.01795367361 219.083102131 162.20295367361 216.275102131 157.08395367361 209.847102131 L 119.30495367361 223.262102131 C 119.66395367361 224.065102131 120.03895367361 224.871102131 120.42895367361 225.681102131 C 125.29095367361 235.778102131 133.55995367361 242.046102131 141.54395367361 248.513102131 L 192.97895367361 230.414102131 L 223.13695367361 169.381102131 C 217.26895367361 163.625102131 215.39295367361 154.568102131 219.11395367361 146.751102131 C 223.80495367361 136.899102131 235.63395367361 132.695102131 245.47895367361 137.380102131 C 255.33395367361 142.073102131 259.52695367361 153.902102131 254.83995367361 163.753102131 C 251.11495367361 171.574102131 242.89395367361 175.821102131 234.74195367361 174.905102131 L 203.13495367361 238.672102131 C 202.37795367361 240.078102131 201.12195367361 241.162102131 199.61695367361 241.696102131 L 152.35895367361 258.327102131 C 153.45395367361 259.532102131 154.49795367361 260.789102131 155.47395367361 262.118102131 C 159.48695367361 267.581102131 161.57895367361 272.738102131 162.57795367361 277.869102131 L 224.64995367361 255.831102131 C 224.57395367361 247.621102131 229.64195367361 239.877102131 237.80795367361 236.977102131 C 248.08695367361 233.328102131 259.41895367361 238.723102131 263.06895367361 249.000102131 C 266.71895367361 259.282102131 261.32995367361 270.620102131 251.04995367361 274.271102131 C 242.88195367361 277.170102131 234.06695367361 274.362102131 228.94795367361 267.934102131 L 163.22895367361 291.269102131 C 162.93995367361 296.449102131 162.26995367361 301.833102131 161.98195367361 307.686102131 C 161.87295367361 309.910102131 161.80595367361 312.033102131 161.77295367361 314.089102131 L 275.98195367361 273.958102131 C 275.90495367361 265.749102131 280.97695367361 258.014102131 289.13895367361 255.118102131 C 299.42395367361 251.465102131 310.75595367361 256.863102131 314.40695367361 267.135102131 C 318.06095367361 277.425102131 312.66495367361 288.753102131 302.37695367361 292.406102131 C 294.21595367361 295.302102131 285.39895367361 292.489102131 280.28495367361 286.079102131 L 162.20795367361 327.567102131 C 162.98895367361 335.955102131 164.78495367361 342.751102131 167.73895367361 348.701102131 L 249.43795367361 319.748102131 C 250.82395367361 319.258102131 252.33795367361 319.253102131 253.72095367361 319.747102131 L 282.10195367361 329.748102131 L 320.58095367361 316.085102131 C 320.50695367361 307.870102131 325.58095367361 300.125102131 333.73895367361 297.229102131 C 344.02695367361 293.577102131 355.35795367361 298.969102131 359.00995367361 309.256102131 C 362.65695367361 319.528102131 357.26595367361 330.869102131 346.97995367361 334.522102131 C 338.81995367361 337.418102131 330.00095367361 334.611102131 324.87795367361 328.193102131 L 284.25795367361 342.614102131 C 282.87295367361 343.104102131 281.35795367361 343.102102131 279.97795367361 342.619102131 L 251.59395367361 332.618102131 L 175.23695367361 359.678102131 C 181.13695367361 366.319102131 189.14295367361 372.373102131 199.59795367361 379.417102131 L 224.41995367361 370.604102131 C 224.33395367361 362.395102131 229.41495367361 354.653102131 237.57395367361 351.753102131 C 247.85495367361 348.105102131 259.18895367361 353.500102131 262.83995367361 363.781102131 C 266.48895367361 374.058102131 261.09695367361 385.398102131 250.81695367361 389.049102131 C 242.65695367361 391.946102131 233.83395367361 389.139102131 228.71495367361 382.716102131 L 211.09295367361 388.973102131 C 217.58795367361 395.952102131 221.47295367361 404.140102131 223.85995367361 415.174102131 L 285.97495367361 393.120102131 C 287.48095367361 392.587102131 289.13695367361 392.636102131 290.61195367361 393.252102131 L 335.97195367361 413.581102131 C 341.72295367361 407.731102131 350.78195367361 405.843102131 358.60395367361 409.562102131 C 368.45295367361 414.253102131 372.65895367361 426.080102131 367.96895367361 435.933102131 C 363.28095367361 445.780102131 351.44895367361 449.977102131 341.59695367361 445.287102131 C 333.77995367361 441.567102131 329.52595367361 433.357102131 330.44995367361 425.187102131 L 287.93795367361 406.065102131 L 225.42795367361 428.258102131 C 226.09395367361 439.580102131 226.20095367361 450.171102131 236.36395367361 459.161102131 C 270.72895367361 489.559102131 312.56495367361 463.882102131 318.79895367361 521.999102131 L 319.08895367361 522.206102131 C 322.32095367361 517.235102131 325.25495367361 512.085102131 326.54395367361 506.142102131 C 329.00395367361 494.818102131 327.48195367361 481.025102131 338.07695367361 473.470102131 C 346.90495367361 467.177102131 362.84995367361 466.792102131 373.09695367361 465.511102131 C 382.70295367361 464.308102131 413.40795367361 460.507102131 409.72395367361 437.890102131 C 406.38195367361 417.404102131 395.02695367361 412.712102131 409.82795367361 400.367102131 C 413.02395367361 397.705102131 410.09495367361 383.855102131 400.41495367361 384.082102131 C 400.41495367361 384.082102131 413.69795367361 383.068102131 410.20795367361 368.883102131 C 406.71795367361 354.699102131 411.89595367361 350.195102131 427.43495367361 344.453102131 C 442.97095367361 338.714102131 433.62695367361 323.855102131 428.11195367361 318.228102131 Z"/><path fill="#fa350b" transform="matrix(1.7008877013181138 0 0 1.7008877013181138 -73.04691271831919 -38.213936667896974)" d="M 298.64095367361 281.876102131 C 303.12295367361 280.284102131 305.46695367361 275.356102131 303.87595367361 270.876102131 C 302.29095367361 266.398102131 297.36095367361 264.056102131 292.87895367361 265.645102131 C 288.41195367361 267.234102131 286.06095367361 272.161102131 287.64895367361 276.637102131 C 289.23895367361 281.118102131 294.17395367361 283.462102131 298.64095367361 281.876102131 Z"/><path fill="#fa350b" transform="matrix(1.7008877013181138 0 0 1.7008877013181138 -73.04691271831919 -38.213936667896974)" d="M 244.75295367361 158.954102131 C 246.79295367361 154.663102131 244.96595367361 149.521102131 240.67195367361 147.481102131 C 236.38595367361 145.437102131 231.24395367361 147.262102131 229.20295367361 151.550102131 C 227.16495367361 155.836102131 228.99095367361 160.980102131 233.27695367361 163.020102131 C 237.56395367361 165.062102131 242.71395367361 163.238102131 244.75295367361 158.954102131 Z"/><path fill="#fa350b" transform="matrix(1.7008877013181138 0 0 1.7008877013181138 -73.04691271831919 -38.213936667896974)" d="M 247.31395367361 263.743102131 C 251.78695367361 262.154102131 254.13295367361 257.215102131 252.54395367361 252.741102131 C 250.95695367361 248.272102131 246.02195367361 245.916102131 241.54695367361 247.505102131 C 237.06995367361 249.095102131 234.72395367361 254.035102131 236.30995367361 258.502102131 C 237.89995367361 262.979102131 242.83595367361 265.333102131 247.31395367361 263.743102131 Z"/><path fill="#fa350b" transform="matrix(1.7008877013181138 0 0 1.7008877013181138 -73.04691271831919 -38.213936667896974)" d="M 175.44895367361 205.655102131 C 179.92195367361 204.066102131 182.26795367361 199.127102131 180.67895367361 194.653102131 C 179.09195367361 190.184102131 174.15695367361 187.828102131 169.68195367361 189.417102131 C 165.20495367361 191.007102131 162.85895367361 195.947102131 164.44495367361 200.414102131 C 166.03495367361 204.891102131 170.97095367361 207.245102131 175.44895367361 205.655102131 Z"/></svg>